<svg xmlns="http://www.w3.org/2000/svg" viewBox="0 0 64 64" width="64" height="64">
    <defs>
        <linearGradient id="brand" x1="0" y1="0" x2="1" y2="1">
            <stop offset="0%" stop-color="#4f46e5"/>
            <stop offset="100%" stop-color="#6366f1"/>
        </linearGradient>
    </defs>
    <rect width="64" height="64" rx="16" fill="url(#brand)"/>
    <g transform="translate(8, 8) scale(2)" fill="none" stroke="#ffffff" stroke-width="2" stroke-linecap="round" stroke-linejoin="round">
        <path d="M13 16V6a1 1 0 00-1-1H4a1 1 0 00-1 1v10a1 1 0 001 1h1m8-1a1 1 0 01-1 1H9m4-1V8a1 1 0 011-1h2.586a1 1 0 01.707.293l3.414 3.414a1 1 0 01.293.707V16a1 1 0 01-1 1h-1m-6-1a1 1 0 001 1h1M5 17a2 2 0 104 0m-4 0a2 2 0 114 0m6 0a2 2 0 104 0m-4 0a2 2 0 114 0"/>
    </g>
</svg>